<svg version="1.1" viewBox="0 0 500 500" width="500" height="500" xmlns="http://www.w3.org/2000/svg"><path d="m237.52 339.28c-2.5921-0.35307-6.4096-1.0279-8.4833-1.4998-4.5516-1.0357-4.6901-1.3627-2.8153-6.6438 3.026-8.5237 9.477-14.661 18.1-17.221 3.2311-0.95919 9.799-0.98776 13.369-0.058 6.0965 1.5879 12.25 6.0383 15.664 11.329 1.8327 2.84 4.1344 9.0951 3.9135 10.636-0.13698 0.95547-0.63164 1.212-3.693 1.9153-9.8041 2.2522-25.817 2.9377-36.054 1.5435zm-35.125-12.745c-11.6-7.6838-22.856-19.162-30.11-30.705-1.8545-2.9508-1.7149-3.2607 2.4038-5.3397 3.82-1.9282 7.4878-2.7841 11.931-2.7841 7.25 0 13.163 2.4385 18.152 7.4861 3.395 3.4347 5.7075 7.3797 6.8122 11.62 0.91733 3.5219 0.92598 9.6014 0.0187 13.085-1.0342 3.9705-3.8502 9.2812-4.9214 9.2812-0.16175 0-2.0906-1.1901-4.2864-2.6445zm89.076 0.42898c-2.3807-3.7539-3.3832-7.0393-3.6388-11.925-0.42785-8.1772 1.8398-14.308 7.3186-19.787 5.12-5.1199 10.986-7.5457 18.248-7.5457 4.4438 0 8.1117 0.85585 11.931 2.7841 4.1187 2.0791 4.2583 2.3891 2.4038 5.3397-5.2873 8.413-14.086 18.325-21.831 24.592-4.2659 3.4518-11.93 8.7576-12.649 8.7576-0.20762 0-1.0098-0.997-1.7826-2.2156zm-47.004-25.588c-4.6035-2.8068-4.6035-9.9233 0-12.73 2.0547-1.2528 5.7302-1.2528 7.785 0 4.6035 2.8068 4.6035 9.9233 0 12.73-0.99201 0.60481-2.3706 0.93651-3.8925 0.93651-1.5219 0-2.9005-0.3317-3.8925-0.93651zm-34.405-12.254c-2.2276-1.3582-3.4091-3.564-3.4091-6.3649 0-4.3771 2.9244-7.3014 7.3016-7.3014s7.3016 2.9244 7.3016 7.3014c0 4.3771-2.9245 7.3014-7.3016 7.3014-1.5219 0-2.9005-0.33171-3.8925-0.93653zm68.809 0c-4.6035-2.8068-4.6035-9.9233 0-12.73 2.0547-1.2528 5.7303-1.2528 7.785 0 4.6035 2.8068 4.6035 9.9233 0 12.73-0.99201 0.60482-2.3706 0.93653-3.8925 0.93653s-2.9005-0.33171-3.8925-0.93653zm-115.82-12.374c-0.11208-0.32409-0.5266-2.021-0.92123-3.7711-2.8895-12.815-2.832-31.256 0.13777-44.182 0.98465-4.2862 1.3694-4.4365 6.6002-2.5796 4.581 1.6263 7.6482 3.6199 10.978 7.135 4.7022 4.9645 7.0035 10.823 7.0035 17.83s-2.3014 12.866-7.0035 17.83c-3.287 3.4704-6.3469 5.4746-10.816 7.0847-3.7653 1.3565-5.6634 1.5635-5.9786 0.65197zm167.78-0.66599c-4.3645-1.6216-7.4379-3.6582-10.67-7.0707-4.7022-4.9645-7.0035-10.823-7.0035-17.83s2.3014-12.866 7.0035-17.83c3.3295-3.5152 6.3967-5.5088 10.978-7.135 5.2308-1.8569 5.6155-1.7066 6.6003 2.5796 3.0222 13.156 3.0226 31.605 8.7e-4 44.772-0.77504 3.3771-0.87355 3.5392-2.2104 3.6378-0.7696 0.0562-2.8839-0.44844-4.6984-1.1226zm-133.03-21.364c-2.2276-1.3582-3.4091-3.564-3.4091-6.365 0-4.3771 2.9245-7.3014 7.3016-7.3014 4.3771 0 7.3016 2.9244 7.3016 7.3014 0 4.3771-2.9244 7.3014-7.3016 7.3014-1.5219 0-2.9005-0.33169-3.8925-0.93651zm93.316 0c-4.6035-2.8068-4.6035-9.9233 0-12.73 2.0547-1.2528 5.7302-1.2528 7.785 0 4.6035 2.8068 4.6035 9.9233 0 12.73-0.99201 0.60482-2.3706 0.93651-3.8925 0.93651s-2.9005-0.33169-3.8925-0.93651zm-81.063-34.404c-2.2276-1.3582-3.4091-3.564-3.4091-6.3649 0-4.3771 2.9244-7.3014 7.3016-7.3014 4.3771 0 7.3016 2.9244 7.3016 7.3014 0 2.801-1.1814 5.0067-3.4091 6.3649-2.0547 1.2528-5.7302 1.2528-7.785 0zm68.809 0c-4.6035-2.8068-4.6035-9.9233 0-12.73 2.0547-1.2528 5.7303-1.2528 7.785 0 4.6035 2.8068 4.6035 9.9233 0 12.73-2.0547 1.2528-5.7303 1.2528-7.785 0zm-98.959-8.7395c-2.8903-0.77841-7.6981-3.1212-8.576-4.1789-0.51816-0.62428-0.37093-1.126 0.94484-3.2196 7.4093-11.79 20.108-24.488 31.897-31.896 2.0937-1.3157 2.5953-1.463 3.2197-0.94483 1.1069 0.91869 3.4065 5.7217 4.2025 8.7776 0.89915 3.4519 0.89915 9.5529 0 13.005-2.3156 8.89-9.5912 16.165-18.482 18.481-3.3417 0.87041-9.9313 0.85863-13.207-0.0233zm126.78 0c-8.7449-2.3552-15.991-9.6724-18.279-18.458-0.89916-3.4519-0.89916-9.5529 0-13.005 0.79601-3.056 3.0955-7.8591 4.2026-8.7775 0.62432-0.5182 1.126-0.37091 3.2196 0.94481 11.79 7.4092 24.487 20.107 31.897 31.896 1.3158 2.0936 1.463 2.5954 0.94484 3.2196-0.91871 1.1069-5.7219 3.4064-8.7778 4.2024-3.3416 0.8704-9.9314 0.85864-13.207-0.0233zm-62.227-3.5137c-4.6035-2.8068-4.6035-9.9233 0-12.73 2.0547-1.2528 5.7302-1.2528 7.785 0 4.6035 2.8068 4.6035 9.9233 0 12.73-2.0548 1.2528-5.7302 1.2528-7.785 0zm0.0161-21.936c-5.9386-1.5995-12.111-6.1125-15.461-11.305-1.8327-2.84-4.1344-9.0951-3.9135-10.636 0.13699-0.95547 0.63164-1.212 3.6929-1.9153 13.157-3.0225 31.617-3.0225 44.773 0 4.2862 0.98473 4.4367 1.3694 2.5797 6.6002-3.026 8.5237-9.477 14.661-18.1 17.221-3.1617 0.9386-10.148 0.95642-13.57 0.0346z" fill="#d64027"/><path d="m248.87 368.05 28.281 40.402c-9.0237 0.85063-18.083 1.2776-27.146 1.2795-104 0-195.29-55.513-244.23-138.57-7.6929-13.054-7.6929-29.255 0-42.309 20.854-35.388 49.405-65.778 83.356-89.013l49.547 70.782c-4.3499 12.316-6.725 25.569-6.725 39.383 0 64.877 52.202 117.43 116.92 118.04zm245.37-96.895c-27.489 46.648-68.358 84.603-117.35 108.93l0.01 0.013 35.999 51.39c6.5974 9.4273 4.3057 22.414-5.1216 29.011l-11.38 7.9689c-9.4273 6.5974-22.414 4.3057-29.011-5.1216l-280.29-394.82c-6.5974-9.4273-4.3057-22.414 5.1216-29.011l11.38-7.9689c9.4273-6.5974 22.414-4.3057 29.011 5.1217l44.305 63.037c23.327-6.1468 47.828-9.4247 73.085-9.4247 104 0 195.29 55.513 244.23 138.57 7.6919 13.054 7.6919 29.254 0 42.308zm-126.17-21.154c0-65.257-52.812-118.06-118.06-118.06-15.572 0-30.431 3.0148-44.037 8.4828l116.53 163.38c5.5798 7.8352 11.176 15.668 16.766 23.5 17.945-20.704 28.799-47.724 28.799-77.303z"/></svg>